<?xml version="1.0" encoding="UTF-8"?><svg id="a" xmlns="http://www.w3.org/2000/svg" viewBox="0 0 1000 1000"><rect width="1000" height="1000" fill="#0c1135"/><path d="M252.71,617.01c-51.14,0-92.74,43.23-92.74,96.38s41.6,96.38,92.74,96.38,92.72-43.23,92.72-96.38-41.6-96.38-92.72-96.38Z" fill="#89ff00"/><path d="M931.37,524.85H443.85c-11.74,0-21.36-10.13-21.36-22.5V212.57c0-12.36-9.47-22.35-21.22-22.35H207.52c-6.36,0-12.31,2.98-16.41,8.05L52.36,373.63c-3.11,4.02-4.95,9.09-4.95,14.3v234.36c0,12.37,9.62,22.35,21.36,22.35h101.69c17.82-28.6,48.51-47.38,83.31-47.38s65.48,18.77,83.3,47.38h341c17.82-28.6,48.51-47.38,83.3-47.38s65.49,18.77,83.31,47.38h86.7c11.74,0,21.22-9.98,21.22-22.35v-75.09c0-12.37-9.47-22.35-21.22-22.35ZM125.2,405.81v-15.5c0-5.37,1.7-10.43,4.81-14.6l88.68-114.87c4.1-5.37,10.32-8.49,16.97-8.49h86.84c12.02,0,21.92,10.28,21.92,23.09v130.37c0,12.66-9.9,23.09-21.92,23.09H147.12c-12.16,0-21.92-10.43-21.92-23.09Z" fill="#89ff00"/><path d="M762.14,617.01c-51.14,0-92.74,43.23-92.74,96.38s41.6,96.38,92.74,96.38,92.72-43.23,92.72-96.38-41.6-96.38-92.72-96.38Z" fill="#89ff00"/><g><path d="M889.61,190.22H482.11c-20.61,0-37.34,16.72-37.34,37.33v241.4c0,20.61,16.72,37.33,37.34,37.33h9.96l1.7,15.77c.16,1.52,1.45,2.66,2.98,2.66h18.1c1.53,0,2.8-1.15,2.97-2.66l1.7-15.77h328.64l1.71,15.77c.16,1.52,1.44,2.66,2.98,2.66h19.11c1.53,0,1.8-1.15,1.96-2.66l1.7-15.77h13.99c20.61,0,37.33-16.72,37.33-37.33V227.55c0-20.61-16.71-37.33-37.33-37.33Zm16.26,278.73c0,8.96-7.3,16.26-16.26,16.26H482.11c-8.97,0-16.27-7.29-16.27-16.26V227.55c0-8.97,7.29-16.26,16.27-16.26h407.5c8.96,0,16.26,7.29,16.26,16.26v241.4Z" fill="#89ff00"/><path d="M781.46,237.03h-191.2c-7.42,0-13.44,6.02-13.44,13.44v191.2c0,7.42,6.02,13.44,13.44,13.44h191.2c7.42,0,13.44-6.02,13.44-13.44V250.47c0-7.42-6.02-13.44-13.44-13.44Zm2.9,31.77h-11.32v34.88h11.32v89.16h-11.32v34.87h11.32v13.96c0,1.6-1.31,2.9-2.9,2.9h-191.2c-1.61,0-2.9-1.3-2.9-2.9V250.47c0-1.6,1.3-2.9,2.9-2.9h191.2c1.6,0,2.9,1.3,2.9,2.9v18.33Z" fill="#89ff00"/><path d="M685.85,279.77c-37.82,0-68.47,30.65-68.48,68.48,.01,37.83,30.66,68.47,68.48,68.48,37.83,0,68.48-30.65,68.48-68.48s-30.65-68.47-68.48-68.48Zm40.98,109.45c-10.5,10.49-24.96,16.97-40.98,16.97-16.02,0-30.47-6.48-40.97-16.97-10.49-10.51-16.97-24.96-16.98-40.97,.01-16.02,6.48-30.47,16.98-40.97,10.5-10.49,24.95-16.97,40.97-16.97,16.02,0,30.48,6.48,40.98,16.97,10.49,10.5,16.97,24.95,16.97,40.97s-6.47,30.47-16.97,40.97Z" fill="#89ff00"/><circle cx="685.85" cy="348.25" r="26.34" transform="translate(-45.37 586.97) rotate(-45)" fill="#89ff00"/></g></svg>