<?xml version="1.0" encoding="UTF-8"?><svg id="a" xmlns="http://www.w3.org/2000/svg" viewBox="0 0 1280 720"><rect width="1280" height="720" fill="#c0ffbc"/><rect x="53.61" y="145.26" width="467.24" height="467.24" rx="80.94" ry="80.94" fill="#0c1135"/><path d="M171.69,433.55c-23.9,0-43.33,20.2-43.33,45.04s19.44,45.03,43.33,45.03,43.32-20.2,43.32-45.03-19.44-45.04-43.32-45.04Z" fill="#89ff00"/><path d="M488.79,390.49h-227.79c-5.49,0-9.98-4.73-9.98-10.51V244.58c0-5.78-4.43-10.44-9.91-10.44h-90.53c-2.97,0-5.75,1.39-7.67,3.76l-64.83,81.94c-1.46,1.88-2.31,4.25-2.31,6.68v109.5c0,5.78,4.49,10.44,9.98,10.44h47.51c8.33-13.37,22.67-22.14,38.92-22.14s30.6,8.77,38.92,22.14h159.33c8.33-13.37,22.67-22.14,38.92-22.14s30.6,8.77,38.92,22.14h40.51c5.49,0,9.91-4.66,9.91-10.44v-35.08c0-5.78-4.43-10.44-9.91-10.44Zm-376.68-55.62v-7.24c0-2.51,.79-4.87,2.25-6.82l41.43-53.67c1.91-2.51,4.82-3.97,7.93-3.97h40.57c5.62,0,10.24,4.8,10.24,10.79v60.91c0,5.92-4.63,10.79-10.24,10.79H122.36c-5.68,0-10.24-4.87-10.24-10.79Z" fill="#89ff00"/><path d="M409.72,433.55c-23.9,0-43.33,20.2-43.33,45.04s19.44,45.03,43.33,45.03,43.32-20.2,43.32-45.03-19.44-45.04-43.32-45.04Z" fill="#89ff00"/><g><path d="M469.28,234.14h-190.4c-9.63,0-17.44,7.81-17.44,17.44v112.79c0,9.63,7.81,17.44,17.44,17.44h4.65l.79,7.37c.08,.71,.68,1.24,1.39,1.24h8.46c.71,0,1.31-.54,1.39-1.24l.8-7.37h153.56l.8,7.37c.08,.71,.67,1.24,1.39,1.24h8.93c.71,0,.84-.54,.92-1.24l.8-7.37h6.54c9.63,0,17.44-7.81,17.44-17.44v-112.79c0-9.63-7.81-17.44-17.44-17.44Zm7.6,130.23c0,4.19-3.41,7.6-7.6,7.6h-190.4c-4.19,0-7.6-3.41-7.6-7.6v-112.79c0-4.19,3.41-7.6,7.6-7.6h190.4c4.19,0,7.6,3.41,7.6,7.6v112.79Z" fill="#89ff00"/><path d="M418.75,256.01h-89.34c-3.47,0-6.28,2.81-6.28,6.28v89.34c0,3.47,2.81,6.28,6.28,6.28h89.34c3.47,0,6.28-2.81,6.28-6.28v-89.34c0-3.47-2.81-6.28-6.28-6.28Zm1.36,14.84h-5.29v16.3h5.29v41.66h-5.29v16.29h5.29v6.52c0,.75-.61,1.36-1.36,1.36h-89.34c-.75,0-1.36-.61-1.36-1.36v-89.34c0-.75,.61-1.36,1.36-1.36h89.34c.75,0,1.36,.61,1.36,1.36v8.56Z" fill="#89ff00"/><path d="M374.07,275.98c-17.67,0-31.99,14.32-32,32,0,17.67,14.33,31.99,32,32,17.68,0,32-14.32,32-32s-14.32-31.99-32-32Zm19.15,51.14c-4.91,4.9-11.66,7.93-19.15,7.93-7.49,0-14.23-3.03-19.14-7.93-4.9-4.91-7.93-11.66-7.93-19.14,0-7.49,3.03-14.24,7.93-19.15,4.91-4.9,11.66-7.93,19.14-7.93,7.48,0,14.24,3.03,19.15,7.93,4.9,4.91,7.93,11.66,7.93,19.15s-3.02,14.23-7.93,19.14Z" fill="#89ff00"/><circle cx="374.07" cy="307.97" r="12.31" transform="translate(-108.21 354.71) rotate(-45)" fill="#89ff00"/></g><text transform="translate(520.86 145.39)" fill="#0c1135" font-family="Roboto-Medium, Roboto" font-size="92.35"><tspan x="0" y="0">Open FileTrucker</tspan></text><g><path d="M648.18,241.01h-15.56v-3.28h15.56v3.28Z"/><path d="M698.99,248.61c0-2.62-.92-4.69-2.76-6.22-1.84-1.53-5.21-2.98-10.1-4.35-4.89-1.38-8.47-2.88-10.72-4.5-3.21-2.3-4.81-5.31-4.81-9.03s1.49-6.56,4.47-8.82c2.98-2.26,6.79-3.4,11.42-3.4,3.14,0,5.95,.61,8.43,1.82,2.48,1.21,4.4,2.9,5.77,5.07,1.37,2.17,2.05,4.58,2.05,7.25h-4.03c0-3.24-1.1-5.84-3.31-7.8-2.21-1.97-5.18-2.95-8.9-2.95s-6.5,.81-8.64,2.42c-2.14,1.62-3.22,3.73-3.22,6.33,0,2.41,.96,4.37,2.89,5.89,1.93,1.52,5.01,2.86,9.26,4.02,4.24,1.16,7.46,2.36,9.65,3.61,2.19,1.25,3.83,2.73,4.94,4.47s1.66,3.78,1.66,6.14c0,3.73-1.49,6.71-4.47,8.97-2.98,2.25-6.9,3.38-11.78,3.38-3.34,0-6.4-.6-9.18-1.79s-4.89-2.86-6.33-5c-1.44-2.14-2.16-4.6-2.16-7.38h4c0,3.34,1.25,5.97,3.74,7.89,2.49,1.93,5.8,2.89,9.94,2.89,3.68,0,6.64-.81,8.87-2.44,2.23-1.62,3.35-3.78,3.35-6.47Z"/><path d="M710.49,214.94c0-.73,.24-1.35,.71-1.86,.48-.51,1.13-.76,1.95-.76s1.48,.25,1.97,.76c.49,.51,.73,1.12,.73,1.86s-.24,1.35-.73,1.84-1.14,.74-1.97,.74-1.47-.25-1.95-.74c-.48-.5-.71-1.11-.71-1.84Zm4.58,45.31h-3.9v-35.15h3.9v35.15Z"/><path d="M729.17,225.09l.13,5.72c1.3-2.12,2.92-3.71,4.87-4.78,1.95-1.06,4.12-1.59,6.5-1.59,5.54,0,9.06,2.27,10.56,6.82,1.26-2.19,2.93-3.87,5.04-5.05,2.1-1.18,4.42-1.77,6.95-1.77,7.54,0,11.38,4.12,11.53,12.35v23.46h-3.9v-23.16c-.02-3.14-.7-5.47-2.03-6.99-1.33-1.52-3.5-2.27-6.51-2.27-2.79,.04-5.16,.95-7.08,2.71-1.93,1.77-3,3.92-3.22,6.45v23.26h-3.9v-23.46c-.02-3.01-.73-5.26-2.13-6.74-1.4-1.48-3.55-2.23-6.45-2.23-2.45,0-4.55,.7-6.3,2.1-1.75,1.4-3.05,3.47-3.9,6.22v24.11h-3.9v-35.15h3.74Z"/><path d="M812.86,243.02c0,5.48-1.21,9.83-3.64,13.04s-5.67,4.82-9.75,4.82c-4.81,0-8.49-1.69-11.05-5.07v17.93h-3.87v-48.67h3.61l.2,4.97c2.53-3.75,6.21-5.62,11.01-5.62,4.2,0,7.5,1.59,9.89,4.78,2.39,3.18,3.59,7.6,3.59,13.26v.55Zm-3.9-.68c0-4.48-.92-8.02-2.76-10.62s-4.41-3.9-7.7-3.9c-2.38,0-4.43,.57-6.14,1.72-1.71,1.15-3.02,2.82-3.93,5v16.86c.93,2.01,2.26,3.55,4,4.61,1.73,1.06,3.78,1.59,6.14,1.59,3.27,0,5.82-1.3,7.65-3.92,1.83-2.61,2.75-6.39,2.75-11.35Z"/><path d="M825.83,260.24h-3.9v-49.9h3.9v49.9Z"/><path d="M850,260.89c-2.99,0-5.69-.74-8.11-2.21-2.42-1.47-4.29-3.52-5.64-6.16-1.34-2.63-2.01-5.58-2.01-8.85v-1.4c0-3.38,.66-6.42,1.97-9.13s3.13-4.84,5.47-6.38c2.34-1.55,4.87-2.32,7.6-2.32,4.27,0,7.65,1.46,10.15,4.37,2.5,2.91,3.75,6.89,3.75,11.94v2.18h-25.08v.75c0,3.99,1.14,7.31,3.43,9.96,2.29,2.65,5.16,3.98,8.63,3.98,2.08,0,3.91-.38,5.51-1.14,1.59-.76,3.04-1.97,4.34-3.64l2.44,1.85c-2.86,4.14-7.01,6.21-12.44,6.21Zm-.71-33.14c-2.92,0-5.39,1.07-7.39,3.22-2,2.14-3.22,5.02-3.66,8.64h21.08v-.42c-.11-3.38-1.07-6.13-2.89-8.25-1.82-2.12-4.2-3.18-7.15-3.18Z"/><path d="M947.56,241.01h-15.56v-3.28h15.56v3.28Z"/><path d="M998.37,248.61c0-2.62-.92-4.69-2.76-6.22-1.84-1.53-5.21-2.98-10.1-4.35-4.89-1.38-8.47-2.88-10.72-4.5-3.21-2.3-4.81-5.31-4.81-9.03s1.49-6.56,4.47-8.82c2.98-2.26,6.79-3.4,11.42-3.4,3.14,0,5.95,.61,8.43,1.82,2.48,1.21,4.4,2.9,5.77,5.07,1.37,2.17,2.05,4.58,2.05,7.25h-4.03c0-3.24-1.1-5.84-3.31-7.8-2.21-1.97-5.18-2.95-8.9-2.95s-6.5,.81-8.64,2.42c-2.14,1.62-3.22,3.73-3.22,6.33,0,2.41,.96,4.37,2.89,5.89,1.93,1.52,5.01,2.86,9.26,4.02,4.24,1.16,7.46,2.36,9.65,3.61,2.19,1.25,3.83,2.73,4.94,4.47s1.66,3.78,1.66,6.14c0,3.73-1.49,6.71-4.47,8.97-2.98,2.25-6.9,3.38-11.78,3.38-3.34,0-6.4-.6-9.18-1.79s-4.89-2.86-6.33-5c-1.44-2.14-2.16-4.6-2.16-7.38h4c0,3.34,1.25,5.97,3.74,7.89,2.49,1.93,5.8,2.89,9.94,2.89,3.68,0,6.64-.81,8.87-2.44,2.23-1.62,3.35-3.78,3.35-6.47Z"/><path d="M1023.71,260.89c-2.99,0-5.69-.74-8.11-2.21-2.42-1.47-4.29-3.52-5.64-6.16-1.34-2.63-2.01-5.58-2.01-8.85v-1.4c0-3.38,.66-6.42,1.97-9.13s3.13-4.84,5.47-6.38c2.34-1.55,4.87-2.32,7.6-2.32,4.27,0,7.65,1.46,10.15,4.37,2.5,2.91,3.75,6.89,3.75,11.94v2.18h-25.08v.75c0,3.99,1.14,7.31,3.43,9.96,2.29,2.65,5.16,3.98,8.63,3.98,2.08,0,3.91-.38,5.51-1.14,1.59-.76,3.04-1.97,4.34-3.64l2.44,1.85c-2.86,4.14-7.01,6.21-12.44,6.21Zm-.71-33.14c-2.92,0-5.39,1.07-7.39,3.22-2,2.14-3.22,5.02-3.66,8.64h21.08v-.42c-.11-3.38-1.07-6.13-2.89-8.25-1.82-2.12-4.2-3.18-7.15-3.18Z"/><path d="M1057.47,257.61c2.71,0,4.98-.76,6.81-2.29,1.83-1.53,2.82-3.5,2.97-5.93h3.74c-.11,2.14-.78,4.1-2.01,5.86s-2.88,3.15-4.92,4.14-4.24,1.49-6.58,1.49c-4.61,0-8.27-1.6-10.96-4.81-2.7-3.21-4.04-7.52-4.04-12.93v-1.17c0-3.47,.61-6.53,1.82-9.19s2.95-4.72,5.21-6.17c2.26-1.45,4.91-2.18,7.94-2.18,3.85,0,7.03,1.15,9.54,3.44,2.5,2.3,3.84,5.32,4.01,9.06h-3.74c-.17-2.75-1.17-4.97-2.97-6.66-1.81-1.69-4.09-2.53-6.84-2.53-3.51,0-6.23,1.27-8.17,3.8-1.94,2.53-2.91,6.09-2.91,10.66v1.14c0,4.48,.97,7.98,2.91,10.49,1.94,2.51,4.67,3.77,8.2,3.77Z"/><path d="M1101.36,255.79c-2.34,3.4-6.08,5.1-11.21,5.1-3.75,0-6.59-1.09-8.54-3.27-1.95-2.18-2.95-5.4-2.99-9.67v-22.87h3.87v22.38c0,6.69,2.71,10.04,8.12,10.04s9.19-2.33,10.69-6.98v-25.44h3.9v35.15h-3.77l-.06-4.45Z"/><path d="M1131.54,228.4c-.82-.15-1.7-.23-2.63-.23-2.43,0-4.48,.68-6.16,2.03-1.68,1.35-2.88,3.32-3.59,5.9v24.14h-3.87v-35.15h3.8l.07,5.59c2.06-4.16,5.36-6.24,9.91-6.24,1.08,0,1.94,.14,2.57,.42l-.1,3.54Z"/><path d="M1151.3,260.89c-2.99,0-5.69-.74-8.11-2.21-2.42-1.47-4.29-3.52-5.64-6.16-1.34-2.63-2.01-5.58-2.01-8.85v-1.4c0-3.38,.66-6.42,1.97-9.13s3.13-4.84,5.47-6.38c2.34-1.55,4.87-2.32,7.6-2.32,4.27,0,7.65,1.46,10.15,4.37,2.5,2.91,3.75,6.89,3.75,11.94v2.18h-25.08v.75c0,3.99,1.14,7.31,3.43,9.96,2.29,2.65,5.16,3.98,8.63,3.98,2.08,0,3.91-.38,5.51-1.14,1.59-.76,3.04-1.97,4.34-3.64l2.44,1.85c-2.86,4.14-7.01,6.21-12.44,6.21Zm-.71-33.14c-2.92,0-5.39,1.07-7.39,3.22-2,2.14-3.22,5.02-3.66,8.64h21.08v-.42c-.11-3.38-1.07-6.13-2.89-8.25-1.82-2.12-4.2-3.18-7.15-3.18Z"/><path d="M648.18,357.27h-15.56v-3.28h15.56v3.28Z"/><path d="M705.72,361.75c-.54,4.98-2.32,8.79-5.34,11.44s-7.04,3.96-12.07,3.96c-3.51,0-6.61-.88-9.31-2.63-2.7-1.75-4.78-4.24-6.25-7.46-1.47-3.22-2.22-6.89-2.24-11.03v-6.14c0-4.2,.74-7.93,2.21-11.18,1.47-3.25,3.59-5.76,6.35-7.52,2.76-1.77,5.94-2.65,9.54-2.65,5.07,0,9.07,1.36,12,4.09s4.64,6.51,5.12,11.34h-4.03c-1-8.04-5.36-12.05-13.09-12.05-4.29,0-7.71,1.6-10.25,4.81-2.54,3.21-3.82,7.64-3.82,13.3v5.79c0,5.46,1.24,9.82,3.72,13.07,2.48,3.25,5.83,4.88,10.05,4.88s7.33-1,9.45-3.01c2.12-2,3.43-5.01,3.93-9.02h4.03Z"/><path d="M730.76,344.66c-.82-.15-1.7-.23-2.63-.23-2.43,0-4.48,.68-6.16,2.03-1.68,1.35-2.88,3.32-3.59,5.9v24.14h-3.87v-35.15h3.8l.07,5.59c2.06-4.16,5.36-6.24,9.91-6.24,1.08,0,1.94,.14,2.57,.42l-.1,3.54Z"/><path d="M734.76,358.41c0-3.38,.66-6.42,1.97-9.13,1.31-2.71,3.16-4.81,5.56-6.32,2.39-1.5,5.11-2.26,8.14-2.26,4.68,0,8.47,1.64,11.37,4.92s4.35,7.63,4.35,13.04v.81c0,3.4-.66,6.46-1.97,9.18-1.31,2.72-3.16,4.81-5.54,6.29-2.38,1.47-5.1,2.21-8.15,2.21-4.66,0-8.44-1.64-11.35-4.92-2.91-3.28-4.37-7.63-4.37-13.04v-.78Zm3.9,1.07c0,4.2,1.09,7.65,3.27,10.35,2.18,2.7,5.03,4.04,8.56,4.04s6.35-1.35,8.53-4.04c2.18-2.7,3.26-6.25,3.26-10.67v-.75c0-2.69-.5-5.14-1.49-7.38-1-2.23-2.39-3.96-4.19-5.18s-3.86-1.84-6.17-1.84c-3.46,0-6.29,1.36-8.48,4.08-2.19,2.72-3.28,6.28-3.28,10.67v.71Z"/><path d="M795.22,367.57c0-1.93-.78-3.48-2.32-4.65-1.55-1.17-3.88-2.08-7-2.75-3.12-.66-5.54-1.42-7.26-2.27-1.72-.86-3-1.9-3.83-3.14-.83-1.23-1.25-2.73-1.25-4.48,0-2.77,1.16-5.06,3.48-6.87,2.32-1.81,5.29-2.71,8.9-2.71,3.92,0,7.07,.97,9.44,2.91,2.37,1.94,3.56,4.47,3.56,7.59h-3.9c0-2.06-.86-3.77-2.58-5.13-1.72-1.36-3.89-2.05-6.51-2.05s-4.61,.57-6.16,1.71c-1.55,1.14-2.32,2.62-2.32,4.43s.64,3.11,1.93,4.08c1.29,.96,3.64,1.85,7.05,2.65,3.41,.8,5.97,1.66,7.67,2.57,1.7,.91,2.96,2,3.79,3.28,.82,1.28,1.23,2.83,1.23,4.65,0,2.97-1.2,5.34-3.59,7.12-2.39,1.78-5.52,2.66-9.37,2.66-4.09,0-7.41-.99-9.96-2.97-2.54-1.98-3.82-4.49-3.82-7.52h3.9c.15,2.27,1.11,4.04,2.88,5.31,1.76,1.27,4.1,1.9,7,1.9,2.71,0,4.89-.6,6.56-1.79s2.5-2.7,2.5-4.52Z"/><path d="M828.91,367.57c0-1.93-.78-3.48-2.32-4.65-1.55-1.17-3.88-2.08-7-2.75-3.12-.66-5.54-1.42-7.26-2.27-1.72-.86-3-1.9-3.83-3.14-.83-1.23-1.25-2.73-1.25-4.48,0-2.77,1.16-5.06,3.48-6.87,2.32-1.81,5.29-2.71,8.9-2.71,3.92,0,7.07,.97,9.44,2.91,2.37,1.94,3.56,4.47,3.56,7.59h-3.9c0-2.06-.86-3.77-2.58-5.13-1.72-1.36-3.89-2.05-6.51-2.05s-4.61,.57-6.16,1.71c-1.55,1.14-2.32,2.62-2.32,4.43s.64,3.11,1.93,4.08c1.29,.96,3.64,1.85,7.05,2.65,3.41,.8,5.97,1.66,7.67,2.57,1.7,.91,2.96,2,3.79,3.28,.82,1.28,1.23,2.83,1.23,4.65,0,2.97-1.2,5.34-3.59,7.12-2.39,1.78-5.52,2.66-9.37,2.66-4.09,0-7.41-.99-9.96-2.97-2.54-1.98-3.82-4.49-3.82-7.52h3.9c.15,2.27,1.11,4.04,2.88,5.31,1.76,1.27,4.1,1.9,7,1.9,2.71,0,4.89-.6,6.56-1.79s2.5-2.7,2.5-4.52Z"/><path d="M853.64,357.27h-15.56v-3.28h15.56v3.28Z"/><path d="M865.49,357.24v19.27h-4v-47.3h16.11c4.92,0,8.8,1.26,11.65,3.77,2.85,2.51,4.27,5.97,4.27,10.36s-1.37,7.87-4.11,10.28c-2.74,2.42-6.71,3.62-11.91,3.62h-12.02Zm0-3.38h12.12c3.88,0,6.83-.92,8.87-2.77,2.04-1.84,3.05-4.41,3.05-7.71s-1.01-5.88-3.04-7.83c-2.03-1.94-4.9-2.93-8.62-2.98h-12.38v21.28Z"/><path d="M905.91,376.5h-3.9v-49.9h3.9v49.9Z"/><path d="M938.66,376.5c-.39-1.1-.64-2.74-.75-4.91-1.36,1.78-3.1,3.15-5.21,4.11-2.11,.96-4.35,1.45-6.71,1.45-3.38,0-6.11-.94-8.2-2.83-2.09-1.88-3.13-4.27-3.13-7.15,0-3.42,1.42-6.13,4.27-8.12,2.85-1.99,6.82-2.99,11.91-2.99h7.05v-4c0-2.51-.78-4.49-2.32-5.93-1.55-1.44-3.81-2.16-6.77-2.16-2.71,0-4.95,.69-6.72,2.08-1.78,1.39-2.66,3.05-2.66,5l-3.9-.03c0-2.79,1.3-5.21,3.9-7.26,2.6-2.05,5.79-3.07,9.58-3.07s7.01,.98,9.28,2.94c2.26,1.96,3.43,4.69,3.49,8.2v16.63c0,3.4,.36,5.95,1.07,7.63v.39h-4.16Zm-12.22-2.79c2.6,0,4.92-.63,6.97-1.88s3.54-2.93,4.47-5.04v-7.73h-6.95c-3.88,.04-6.91,.75-9.1,2.13-2.19,1.38-3.28,3.27-3.28,5.67,0,1.97,.73,3.61,2.19,4.91s3.36,1.95,5.7,1.95Z"/><path d="M958.15,332.35v9h7.28v3.18h-7.28v23.45c0,1.95,.35,3.41,1.06,4.36,.7,.96,1.88,1.43,3.53,1.43,.65,0,1.7-.11,3.15-.33l.16,3.16c-1.02,.36-2.4,.55-4.16,.55-2.66,0-4.6-.77-5.82-2.32-1.21-1.55-1.82-3.83-1.82-6.84v-23.46h-6.47v-3.18h6.47v-9h3.9Z"/><path d="M976.28,376.5v-31.97h-5.82v-3.18h5.82v-4.26c0-3.59,.92-6.36,2.75-8.28s4.38-2.89,7.65-2.89c1.47,0,2.85,.18,4.13,.55l-.29,3.22c-1.08-.26-2.26-.39-3.54-.39-2.14,0-3.81,.67-5,2-1.19,1.34-1.79,3.23-1.79,5.68v4.37h8.38v3.18h-8.38v31.97h-3.9Z"/><path d="M993.37,358.41c0-3.38,.66-6.42,1.97-9.13,1.31-2.71,3.16-4.81,5.56-6.32,2.39-1.5,5.11-2.26,8.14-2.26,4.68,0,8.47,1.64,11.37,4.92s4.35,7.63,4.35,13.04v.81c0,3.4-.66,6.46-1.97,9.18-1.31,2.72-3.16,4.81-5.54,6.29-2.38,1.47-5.1,2.21-8.15,2.21-4.66,0-8.44-1.64-11.35-4.92-2.91-3.28-4.37-7.63-4.37-13.04v-.78Zm3.9,1.07c0,4.2,1.09,7.65,3.27,10.35,2.18,2.7,5.03,4.04,8.56,4.04s6.35-1.35,8.53-4.04c2.18-2.7,3.26-6.25,3.26-10.67v-.75c0-2.69-.5-5.14-1.49-7.38-1-2.23-2.39-3.96-4.19-5.18s-3.86-1.84-6.17-1.84c-3.46,0-6.29,1.36-8.48,4.08-2.19,2.72-3.28,6.28-3.28,10.67v.71Z"/><path d="M1049.02,344.66c-.82-.15-1.7-.23-2.63-.23-2.43,0-4.48,.68-6.16,2.03-1.68,1.35-2.88,3.32-3.59,5.9v24.14h-3.87v-35.15h3.8l.07,5.59c2.06-4.16,5.36-6.24,9.91-6.24,1.08,0,1.94,.14,2.57,.42l-.1,3.54Z"/><path d="M1058.7,341.35l.13,5.72c1.3-2.12,2.92-3.71,4.87-4.78,1.95-1.06,4.12-1.59,6.5-1.59,5.54,0,9.06,2.27,10.56,6.82,1.26-2.19,2.93-3.87,5.04-5.05,2.1-1.18,4.42-1.77,6.95-1.77,7.54,0,11.38,4.12,11.53,12.35v23.46h-3.9v-23.16c-.02-3.14-.7-5.47-2.03-6.99-1.33-1.52-3.5-2.27-6.51-2.27-2.79,.04-5.16,.95-7.08,2.71-1.93,1.77-3,3.92-3.22,6.45v23.26h-3.9v-23.46c-.02-3.01-.73-5.26-2.13-6.74-1.4-1.48-3.55-2.23-6.45-2.23-2.45,0-4.55,.7-6.3,2.1-1.75,1.4-3.05,3.47-3.9,6.22v24.11h-3.9v-35.15h3.74Z"/><path d="M648.18,473.71h-15.56v-3.28h15.56v3.28Z"/><path d="M707.18,471.86c0,4.35-.75,8.18-2.26,11.47-1.51,3.29-3.66,5.83-6.45,7.6-2.79,1.78-6.02,2.66-9.68,2.66-5.52,0-9.99-1.98-13.38-5.93-3.4-3.95-5.1-9.29-5.1-16v-4.87c0-4.31,.76-8.13,2.29-11.45,1.53-3.32,3.69-5.88,6.48-7.67s6.01-2.68,9.65-2.68,6.85,.88,9.63,2.63c2.78,1.75,4.93,4.23,6.45,7.44,1.52,3.21,2.31,6.92,2.37,11.14v5.65Zm-4-5.13c0-5.7-1.29-10.16-3.87-13.39-2.58-3.23-6.11-4.84-10.59-4.84s-7.9,1.62-10.51,4.86-3.91,7.76-3.91,13.56v4.94c0,5.61,1.3,10.05,3.9,13.34,2.6,3.28,6.13,4.92,10.59,4.92s8.06-1.62,10.59-4.86c2.53-3.24,3.8-7.75,3.8-13.53v-5Z"/><path d="M744.6,475.72c0,5.48-1.21,9.83-3.64,13.04s-5.67,4.82-9.75,4.82c-4.81,0-8.49-1.69-11.05-5.07v17.93h-3.87v-48.67h3.61l.2,4.97c2.53-3.75,6.21-5.62,11.01-5.62,4.2,0,7.5,1.59,9.89,4.78,2.39,3.18,3.59,7.6,3.59,13.25v.55Zm-3.9-.68c0-4.48-.92-8.02-2.76-10.62-1.84-2.6-4.41-3.9-7.7-3.9-2.38,0-4.43,.57-6.14,1.72-1.71,1.15-3.02,2.82-3.93,5v16.86c.93,2.01,2.26,3.55,4,4.61,1.73,1.06,3.78,1.59,6.14,1.59,3.27,0,5.82-1.3,7.65-3.92,1.83-2.61,2.75-6.39,2.75-11.35Z"/><path d="M766.83,493.59c-2.99,0-5.69-.74-8.11-2.21-2.42-1.47-4.29-3.52-5.64-6.16-1.34-2.63-2.01-5.58-2.01-8.85v-1.4c0-3.38,.66-6.42,1.97-9.13,1.31-2.71,3.13-4.83,5.47-6.38,2.34-1.55,4.87-2.32,7.6-2.32,4.27,0,7.65,1.46,10.15,4.37,2.5,2.91,3.75,6.89,3.75,11.94v2.18h-25.08v.75c0,3.99,1.14,7.3,3.43,9.96s5.16,3.98,8.63,3.98c2.08,0,3.91-.38,5.51-1.14,1.59-.76,3.04-1.97,4.34-3.64l2.44,1.85c-2.86,4.14-7.01,6.21-12.44,6.21Zm-.71-33.14c-2.92,0-5.39,1.07-7.39,3.22-2,2.14-3.22,5.03-3.66,8.64h21.08v-.42c-.11-3.38-1.07-6.13-2.89-8.25-1.82-2.12-4.2-3.18-7.15-3.18Z"/><path d="M791.29,457.79l.13,6.01c1.32-2.17,2.97-3.82,4.94-4.95s4.15-1.71,6.53-1.71c3.77,0,6.57,1.06,8.42,3.18,1.84,2.12,2.77,5.31,2.79,9.55v23.07h-3.87v-23.1c-.02-3.14-.69-5.48-2-7.02-1.31-1.54-3.41-2.31-6.29-2.31-2.4,0-4.53,.75-6.38,2.26-1.85,1.51-3.22,3.54-4.11,6.09v24.07h-3.87v-35.15h3.7Z"/><path d="M868,481.31c0-2.62-.92-4.69-2.76-6.22-1.84-1.53-5.21-2.98-10.1-4.35-4.89-1.38-8.47-2.88-10.72-4.5-3.21-2.3-4.81-5.31-4.81-9.03s1.49-6.56,4.47-8.82c2.98-2.26,6.79-3.4,11.42-3.4,3.14,0,5.95,.61,8.43,1.82,2.48,1.21,4.4,2.9,5.77,5.07,1.37,2.17,2.05,4.58,2.05,7.25h-4.03c0-3.24-1.1-5.84-3.31-7.8-2.21-1.97-5.18-2.95-8.9-2.95s-6.5,.81-8.64,2.42c-2.14,1.62-3.22,3.73-3.22,6.33,0,2.41,.96,4.37,2.89,5.89s5.01,2.86,9.26,4.02c4.24,1.16,7.46,2.36,9.65,3.61,2.19,1.25,3.83,2.74,4.94,4.47s1.66,3.78,1.66,6.14c0,3.73-1.49,6.71-4.47,8.97-2.98,2.25-6.9,3.38-11.78,3.38-3.34,0-6.4-.6-9.18-1.79-2.78-1.19-4.89-2.86-6.33-5-1.44-2.14-2.16-4.6-2.16-7.38h4c0,3.34,1.25,5.97,3.74,7.9,2.49,1.93,5.8,2.89,9.94,2.89,3.68,0,6.64-.81,8.87-2.44,2.23-1.62,3.35-3.78,3.35-6.46Z"/><path d="M877.58,474.85c0-3.38,.66-6.42,1.97-9.13,1.31-2.71,3.16-4.81,5.56-6.32,2.39-1.51,5.11-2.26,8.14-2.26,4.68,0,8.47,1.64,11.37,4.92,2.9,3.28,4.35,7.63,4.35,13.04v.81c0,3.4-.66,6.46-1.97,9.18s-3.16,4.81-5.54,6.29c-2.38,1.47-5.1,2.21-8.15,2.21-4.66,0-8.44-1.64-11.35-4.92-2.91-3.28-4.37-7.63-4.37-13.04v-.78Zm3.9,1.07c0,4.2,1.09,7.65,3.27,10.35,2.18,2.7,5.03,4.04,8.56,4.04s6.35-1.35,8.53-4.04c2.18-2.7,3.26-6.25,3.26-10.67v-.75c0-2.69-.5-5.14-1.49-7.38s-2.39-3.96-4.19-5.18c-1.8-1.22-3.86-1.83-6.17-1.83-3.46,0-6.29,1.36-8.48,4.08-2.19,2.72-3.28,6.28-3.28,10.67v.71Z"/><path d="M939.6,488.49c-2.34,3.4-6.08,5.1-11.21,5.1-3.75,0-6.59-1.09-8.54-3.26-1.95-2.18-2.95-5.4-2.99-9.67v-22.87h3.87v22.38c0,6.69,2.71,10.04,8.12,10.04s9.19-2.33,10.69-6.98v-25.44h3.9v35.15h-3.77l-.06-4.45Z"/><path d="M969.78,461.1c-.82-.15-1.7-.23-2.63-.23-2.43,0-4.48,.68-6.16,2.03-1.68,1.35-2.88,3.32-3.59,5.9v24.14h-3.87v-35.15h3.8l.07,5.59c2.06-4.16,5.36-6.24,9.91-6.24,1.08,0,1.94,.14,2.57,.42l-.1,3.54Z"/><path d="M988.92,490.31c2.71,0,4.98-.76,6.81-2.29,1.83-1.53,2.82-3.5,2.97-5.93h3.74c-.11,2.14-.78,4.1-2.01,5.86-1.23,1.77-2.88,3.15-4.92,4.14s-4.24,1.49-6.58,1.49c-4.61,0-8.27-1.6-10.96-4.81s-4.04-7.52-4.04-12.93v-1.17c0-3.46,.61-6.53,1.82-9.19s2.95-4.72,5.21-6.17c2.26-1.45,4.91-2.18,7.94-2.18,3.85,0,7.03,1.15,9.54,3.44s3.84,5.32,4.01,9.06h-3.74c-.17-2.75-1.17-4.97-2.97-6.66-1.81-1.69-4.09-2.53-6.84-2.53-3.51,0-6.23,1.27-8.17,3.8s-2.91,6.09-2.91,10.66v1.14c0,4.48,.97,7.98,2.91,10.49,1.94,2.51,4.67,3.77,8.2,3.77Z"/><path d="M1023.81,493.59c-2.99,0-5.69-.74-8.11-2.21-2.42-1.47-4.29-3.52-5.64-6.16-1.34-2.63-2.01-5.58-2.01-8.85v-1.4c0-3.38,.66-6.42,1.97-9.13,1.31-2.71,3.13-4.83,5.47-6.38,2.34-1.55,4.87-2.32,7.6-2.32,4.27,0,7.65,1.46,10.15,4.37,2.5,2.91,3.75,6.89,3.75,11.94v2.18h-25.08v.75c0,3.99,1.14,7.3,3.43,9.96s5.16,3.98,8.63,3.98c2.08,0,3.91-.38,5.51-1.14,1.59-.76,3.04-1.97,4.34-3.64l2.44,1.85c-2.86,4.14-7.01,6.21-12.44,6.21Zm-.71-33.14c-2.92,0-5.39,1.07-7.39,3.22-2,2.14-3.22,5.03-3.66,8.64h21.08v-.42c-.11-3.38-1.07-6.13-2.89-8.25-1.82-2.12-4.2-3.18-7.15-3.18Z"/></g><text transform="translate(632.61 612.5)" fill="#0c1135" font-family="Roboto-Regular, Roboto" font-size="81.78"><tspan x="0" y="0">File sharing app</tspan></text><g><path d="M887.72,226.61v-3.16s-.09-.09-.14-.14c-1.35-1.35-2.17-3.19-2.17-5.25,0-2.05,.83-3.9,2.17-5.25,1.35-1.35,3.19-2.17,5.25-2.17,2.05,0,3.9,.83,5.25,2.17,1.35,1.35,2.17,3.19,2.17,5.25,0,1.98-.78,3.77-2.04,5.1v3.28c2.76-1.77,4.58-4.86,4.58-8.38,0-5.51-4.46-9.97-9.97-9.97-5.5,0-9.97,4.46-9.97,9.97,0,3.63,1.95,6.8,4.86,8.55Z"/><path d="M903.47,236.14c-3.16,3.48-4.02,4.18-4.02,4.18-.58,.56-1.44,.71-2.19,.4-.74-.32-1.22-1.05-1.22-1.85l-.05-20.95v.38c-.3-1.97-1.51-2.94-3.02-2.94-1.67,0-3.02,1.35-3.02,3.02l-.05,15.18-12.3,3.18c-3.44,1.47-5.17,5.34-3.97,8.89l3.08,11.54v6h19.96v-6s10.32-15.56,11.38-17.07c1.9-2.69-1.42-7.43-4.58-3.95Z"/></g><path d="M1209.67,233.17v-5.21c0-4.07-1.66-7.8-4.34-10.46-2.67-2.67-6.39-4.34-10.46-4.33-4.08,0-7.8,1.66-10.46,4.33-2.67,2.67-4.34,6.39-4.34,10.46v5.21h-4.77v20.52c0,5.23,4.24,9.47,9.47,9.47h20.21c5.23,0,9.47-4.24,9.47-9.47v-20.52h-4.78Zm-22.41-5.21c0-1.06,.21-2.05,.6-2.96,.58-1.36,1.55-2.53,2.76-3.35,1.22-.82,2.67-1.3,4.26-1.3,1.06,0,2.05,.21,2.96,.6,1.36,.58,2.53,1.55,3.35,2.76,.82,1.22,1.3,2.66,1.3,4.26v5.21h-15.23v-5.21Zm7.62,23.52c-2.7,0-4.89-2.19-4.89-4.89s2.19-4.89,4.89-4.89,4.89,2.19,4.89,4.89-2.19,4.89-4.89,4.89Z"/><path d="M1139.48,325.93h-22.95c-2.07,0-3.75,1.69-3.75,3.75v44.83c0,2.06,1.69,3.75,3.75,3.75h22.95c2.06,0,3.75-1.69,3.75-3.75v-44.83c0-2.06-1.69-3.75-3.75-3.75Zm-11.47,48.8c-.62,0-1.13-.5-1.13-1.13s.5-1.13,1.13-1.13,1.13,.5,1.13,1.13-.51,1.13-1.13,1.13Zm12.88-4.6h-25.76v-37.78h25.76v37.78Z"/><g><path d="M1200,325.93h-45.48c-1.56,0-2.85,1.28-2.85,2.85v37.31c0,1.57,1.28,2.85,2.85,2.85h13.2v5.5h-3.71v2.73h26.51v-2.73h-3.71v-5.5h13.2c1.57,0,2.85-1.28,2.85-2.85v-37.31c0-1.57-1.28-2.85-2.85-2.85Zm-.86,38.16h-43.77v-34.46h43.77v34.46Z"/><path d="M1223.48,325.93h-14.68c-1.6,0-2.9,1.3-2.9,2.91v45.42c0,1.6,1.3,2.9,2.9,2.9h14.68c1.6,0,2.9-1.3,2.9-2.9v-45.42c0-1.61-1.3-2.91-2.9-2.91Zm-7.34,38.42c-1.84,0-3.33-1.49-3.33-3.33s1.49-3.33,3.33-3.33,3.33,1.49,3.33,3.33-1.49,3.33-3.33,3.33Zm5.25-20.75h-10.25v-2.05h10.25v2.05Zm0-6.15h-10.25v-2.05h10.25v2.05Z"/></g><g><path d="M1059.63,485.37h17.7c.25-.74,.58-1.45,.97-2.12h-18.67v2.12Z"/><rect x="1059.63" y="474.65" width="22.18" height="2.12"/><rect x="1059.63" y="466.06" width="22.18" height="2.12"/><rect x="1071.35" y="457.47" width="10.45" height="2.12"/><path d="M1055.6,492.14c-1.09,0-1.98-.88-1.98-1.98v-28.11h12.1c1.33,0,2.42-1.09,2.42-2.43v-12.12h17.69c1.09,0,1.98,.88,1.98,1.98v28.02c.17-.02,.34-.02,.51-.02,.7,0,1.37,.06,2.03,.18v-28.19c0-2.5-2.03-4.52-4.52-4.52h-18.34c-1.32,0-2.59,.52-3.52,1.45l-11.44,11.44c-.94,.93-1.45,2.2-1.45,3.52v28.79c0,2.5,2.02,4.52,4.52,4.52h22.52c-.43-.79-.78-1.65-1.02-2.54h-21.5Zm10.28-44.03v10.16c0,1.09-.43,1.52-1.53,1.52h-10.16l11.69-11.68Z"/><path d="M1088.32,480.49c-4.76,0-8.62,3.86-8.62,8.62s3.86,8.62,8.62,8.62,8.62-3.86,8.62-8.62-3.86-8.62-8.62-8.62Zm5.57,5.81l-4.6,5.58c-.29,.37-.72,.6-1.19,.64-.47,.04-.93-.12-1.28-.43l-2.8-2.51c-.21-.19-.34-.45-.35-.74-.01-.28,.08-.56,.27-.77l.38-.41c.19-.21,.46-.33,.74-.35,.28-.01,.56,.09,.77,.28l2.34,2.15,4.74-4.38c.27-.23,.67-.23,.92,.02,.26,.24,.28,.64,.06,.92Z"/></g><g><path d="M1127.95,444.97c-14.72,0-26.66,11.94-26.66,26.66,0,11.78,7.64,21.77,18.23,25.3,1.33,.25,1.82-.58,1.82-1.28,0-.64-.02-2.74-.04-4.96-7.42,1.61-8.98-3.15-8.98-3.15-1.21-3.08-2.96-3.9-2.96-3.9-2.42-1.65,.18-1.62,.18-1.62,2.68,.19,4.09,2.75,4.09,2.75,2.38,4.08,6.24,2.9,7.76,2.22,.24-1.72,.93-2.9,1.69-3.57-5.92-.67-12.15-2.96-12.15-13.18,0-2.91,1.04-5.29,2.75-7.16-.28-.67-1.19-3.38,.26-7.06,0,0,2.24-.72,7.33,2.73,2.13-.59,4.41-.89,6.67-.9,2.27,.01,4.55,.31,6.68,.9,5.09-3.45,7.32-2.73,7.32-2.73,1.45,3.67,.54,6.38,.26,7.06,1.71,1.87,2.74,4.25,2.74,7.16,0,10.24-6.24,12.5-12.17,13.16,.96,.83,1.81,2.45,1.81,4.94,0,3.57-.03,6.44-.03,7.32,0,.71,.48,1.54,1.83,1.28,10.59-3.53,18.22-13.52,18.22-25.3,0-14.73-11.94-26.66-26.66-26.66Z" fill="#191313" fill-rule="evenodd"/><path d="M1111.39,483.25c-.06,.13-.27,.17-.46,.08-.19-.09-.3-.27-.24-.4,.06-.14,.27-.17,.46-.08,.19,.09,.3,.27,.24,.4h0Zm-.33-.24" fill="#191313"/><path d="M1112.47,484.45c-.13,.12-.38,.06-.54-.12-.17-.19-.21-.43-.08-.55,.13-.12,.37-.06,.55,.12,.17,.19,.21,.43,.08,.55h0Zm-.25-.27" fill="#191313"/><path d="M1113.52,485.99c-.16,.11-.43,0-.6-.23-.16-.24-.16-.52,0-.64,.17-.11,.43-.01,.6,.22,.16,.24,.16,.53,0,.64h0Zm0,0" fill="#191313"/><path d="M1114.96,487.47c-.15,.16-.46,.12-.69-.1-.23-.21-.3-.52-.15-.68,.15-.16,.46-.12,.69,.1,.23,.21,.3,.52,.15,.68h0Zm0,0" fill="#191313"/><path d="M1116.95,488.34c-.06,.21-.36,.3-.67,.21-.3-.09-.5-.34-.44-.55,.06-.21,.36-.31,.67-.21,.3,.09,.5,.33,.44,.55h0Zm0,0" fill="#191313"/><path d="M1119.13,488.49c0,.22-.25,.4-.57,.41-.32,0-.58-.17-.58-.39,0-.22,.25-.4,.57-.41,.32,0,.58,.17,.58,.39h0Zm0,0" fill="#191313"/><path d="M1121.16,488.15c.04,.21-.18,.43-.5,.49-.31,.06-.6-.08-.64-.29-.04-.22,.19-.44,.49-.5,.32-.05,.6,.07,.64,.29h0Zm0,0" fill="#191313"/></g></svg>